<svg width="144" height="144" viewBox="0 0 144 144" fill="none" xmlns="http://www.w3.org/2000/svg">
<path d="M60.6565 94.4825C58.7849 94.4825 57.1919 94.1836 55.8773 93.5859C54.5559 92.9962 53.4935 91.9341 52.6913 90.4019C51.889 88.8697 51.2965 86.7432 50.9148 84.0224C50.5332 81.3016 50.3418 77.8153 50.3418 73.5623C50.3418 68.3517 50.7429 64.2597 51.5452 61.286C52.3474 58.3204 53.5623 56.2134 55.1897 54.9639C56.8091 53.7225 58.8422 53.1018 61.2868 53.1018C63.1584 53.1018 64.7445 53.4156 66.043 54.0444C67.3415 54.68 68.3925 55.7536 69.1948 57.2629C69.997 58.7802 70.5815 60.8411 70.9482 63.447C71.307 66.0528 71.4869 69.3472 71.4869 73.3324C71.4869 78.7348 71.1053 82.9683 70.3408 86.0339C69.5764 89.0996 68.404 91.272 66.8224 92.5514C65.2328 93.8388 63.1779 94.4825 60.6565 94.4825ZM61.0003 87.8156C61.955 87.8156 62.6736 87.3363 63.1549 86.3788C63.6283 85.4213 63.9606 83.8879 64.152 81.7809C64.3434 79.674 64.4385 76.9336 64.4385 73.5623C64.4385 70.2288 64.3732 67.5471 64.2437 65.516C64.1062 63.4849 63.8082 62.0182 63.3498 61.1136C62.8913 60.217 62.1659 59.7687 61.1722 59.7687C60.2554 59.7687 59.5482 60.2549 59.052 61.2285C58.5557 62.209 58.2039 63.8114 57.9976 66.0333C57.7833 68.2552 57.6767 71.2438 57.6767 74.9991C57.6767 77.9877 57.7535 80.4211 57.9059 82.2982C58.0583 84.1753 58.3758 85.5627 58.8571 86.4592C59.3305 87.3639 60.0456 87.8156 61.0003 87.8156ZM91.9444 93.9078H74.2375C74.0083 93.6399 73.81 93.302 73.6415 92.8962C73.4662 92.4974 73.3779 92.0112 73.3779 91.4364C73.3779 91.0146 73.4158 90.5824 73.4925 90.1375C73.5693 89.7007 73.7023 89.2329 73.8937 88.7352L85.6983 59.3664H76.7589C76.3772 59.3664 75.9371 59.3859 75.4409 59.4239C74.9446 59.4618 74.4862 59.5388 74.0656 59.6538V54.8835C74.0656 54.0788 74.4667 53.6765 75.269 53.6765H92.4601C92.6515 53.9444 92.7959 54.2248 92.8956 54.5156C92.9873 54.7996 93.0331 55.1904 93.0331 55.6881C93.0331 56.5697 92.8418 57.4893 92.4601 58.4468L80.369 88.2179H89.2511C89.9766 88.2179 90.6642 88.18 91.314 88.103C91.9639 88.026 92.5552 87.8731 93.0904 87.6432V92.7583C93.0904 93.1031 93.0137 93.379 92.8612 93.5859C92.7088 93.8009 92.4028 93.9078 91.9444 93.9078Z" fill="#FF4057"/>
<path d="M51.9264 110.741V99.9258C51.9264 99.9258 51.9399 99.9258 51.9674 99.9258C51.9927 99.9258 52.0843 99.9258 52.2422 99.9258H53.379C53.5369 99.9258 53.6295 99.9258 53.6569 99.9258C53.6822 99.9258 53.6948 99.9258 53.6948 99.9258V110.428C53.6948 110.532 53.6686 110.605 53.6159 110.647C53.5631 110.689 53.4138 110.715 53.1675 110.726C52.9189 110.736 52.5052 110.741 51.9264 110.741ZM55.3686 101.415H50V100.083C50 99.8734 50.1052 99.769 50.3158 99.769H55.6844V101.101C55.6844 101.227 55.6613 101.31 55.6149 101.352C55.5666 101.394 55.4845 101.415 55.3686 101.415ZM58.195 106.509H56.837C56.658 106.509 56.5528 106.478 56.5212 106.415C56.4896 106.352 56.4739 106.237 56.4739 106.07V100.083C56.4739 100.083 56.4792 100.03 56.4896 99.9258C56.5001 99.8214 56.5898 99.769 56.7581 99.769H58.116C58.7792 99.769 59.3391 99.86 59.7961 100.042C60.2549 100.226 60.6036 100.55 60.8413 101.014C61.0772 101.48 61.195 102.141 61.195 102.998C61.195 103.709 61.1088 104.291 60.9361 104.744C60.7614 105.2 60.5287 105.555 60.2382 105.81C59.9498 106.067 59.6296 106.248 59.2781 106.352C58.9245 106.457 58.5635 106.509 58.195 106.509ZM56.316 110.741V100.083C56.316 100.083 56.3295 100.03 56.357 99.9258C56.3823 99.8214 56.4739 99.769 56.6318 99.769H57.7686C57.9265 99.769 58.0191 99.8214 58.0465 99.9258C58.0718 100.03 58.0844 100.083 58.0844 100.083V110.428C58.0844 110.532 58.0582 110.605 58.0055 110.647C57.9527 110.689 57.8034 110.715 57.557 110.726C57.3085 110.736 56.8948 110.741 56.316 110.741ZM60.5319 110.788C60.3951 110.788 60.2372 110.783 60.0582 110.773C59.8791 110.762 59.6896 110.752 59.4897 110.741C59.4686 109.822 59.3896 109.061 59.2529 108.459C59.1161 107.859 58.9614 107.389 58.7887 107.048C58.614 106.71 58.4612 106.469 58.3308 106.327C58.1981 106.187 58.1318 106.117 58.1318 106.117C58.1318 106.117 58.116 106.081 58.0844 106.008C58.0528 105.934 58.1056 105.861 58.2423 105.788L59.2371 105.224C59.4054 105.224 59.5159 105.281 59.5687 105.396C59.5687 105.396 59.6581 105.482 59.8371 105.653C60.0162 105.827 60.2246 106.109 60.4624 106.5C60.6983 106.892 60.913 107.408 61.1066 108.045C61.3024 108.683 61.4161 109.466 61.4477 110.396C61.4477 110.543 61.4035 110.644 61.315 110.7C61.2244 110.759 60.9636 110.788 60.5319 110.788ZM58.0844 101.289V104.895H58.4002C58.5685 104.895 58.7107 104.842 58.8266 104.738C58.9425 104.633 59.035 104.437 59.1045 104.149C59.1717 103.862 59.2055 103.447 59.2055 102.904C59.2055 102.528 59.1825 102.22 59.136 101.979C59.0877 101.739 59.0138 101.563 58.915 101.452C58.8139 101.344 58.6791 101.289 58.5108 101.289H58.0844ZM62.7582 110.773C62.6423 110.773 62.4794 110.767 62.2688 110.757C62.0581 110.747 61.8478 110.731 61.6372 110.71L64.2741 100.067C64.3161 99.8474 64.5529 99.7377 64.9846 99.7377C65.1321 99.7377 65.2824 99.743 65.4362 99.7534C65.5878 99.7637 65.7163 99.7794 65.8215 99.8004L68.4584 110.459C68.4796 110.563 68.4426 110.642 68.3479 110.694C68.2531 110.747 68.0267 110.773 67.6689 110.773C67.553 110.773 67.4109 110.77 67.2426 110.766C67.0743 110.76 66.874 110.752 66.6426 110.741L65.4899 105.208C65.4372 104.926 65.3847 104.62 65.332 104.29C65.2793 103.961 65.2319 103.62 65.1899 103.264C65.1479 102.909 65.1109 102.569 65.0794 102.246C65.0478 102.569 65.0089 102.909 64.9625 103.264C64.9142 103.62 64.8656 103.961 64.8172 104.29C64.7708 104.62 64.7162 104.926 64.653 105.208L63.5635 110.443C63.5424 110.548 63.4931 110.628 63.4151 110.685C63.3352 110.743 63.116 110.773 62.7582 110.773ZM67.0057 108.249H63.4372V106.666H67.0057V108.249ZM68.9795 110.741V100.537C68.9795 100.276 69.0057 100.093 69.0584 99.9885C69.1111 99.8841 69.2637 99.8214 69.5163 99.8004C69.769 99.7794 70.1899 99.769 70.7795 99.769V110.428C70.7795 110.532 70.7533 110.605 70.7006 110.647C70.6478 110.689 70.4984 110.715 70.2521 110.726C70.0036 110.736 69.5795 110.741 68.9795 110.741ZM77.2534 110.741H75.8796L74.2059 106.54C74.1112 106.29 74.0133 106.002 73.9122 105.678C73.8134 105.355 73.7196 105.015 73.6312 104.659C73.5405 104.304 73.4584 103.959 73.3848 103.625C73.3113 103.29 73.2449 102.988 73.1859 102.716C73.129 102.444 73.0848 102.227 73.0533 102.064C73.0217 101.903 73.0059 101.822 73.0059 101.822L71.9638 100.788L72.0427 99.769H73.448L75.0902 103.891C75.1953 104.163 75.3008 104.468 75.4059 104.807C75.5111 105.148 75.609 105.492 75.6996 105.841C75.7881 106.192 75.8692 106.53 75.9428 106.854C76.0164 107.178 76.0795 107.471 76.1323 107.732C76.185 107.993 76.227 108.199 76.2586 108.349C76.2902 108.502 76.306 108.578 76.306 108.578L77.3797 109.722L77.2534 110.741ZM71.7269 110.741V100.083C71.7269 99.8734 71.8321 99.769 72.0427 99.769L73.4954 100.083L73.2269 102.732C73.2585 102.951 73.2847 103.176 73.3059 103.406C73.3271 103.635 73.3479 103.867 73.3691 104.101C73.3902 104.338 73.4079 104.568 73.4227 104.791C73.4395 105.017 73.4534 105.239 73.4638 105.459C73.4742 105.678 73.4827 105.889 73.4891 106.092C73.4932 106.297 73.4954 106.488 73.4954 106.666V110.428C73.4954 110.532 73.4692 110.605 73.4164 110.647C73.3637 110.689 73.2165 110.715 72.9743 110.726C72.7321 110.736 72.3165 110.741 71.7269 110.741ZM77.2534 110.741L75.8007 110.428L76.0375 107.418C76.006 107.178 75.9798 106.945 75.9586 106.719C75.9374 106.496 75.9198 106.279 75.9049 106.07C75.8882 105.861 75.8724 105.657 75.8575 105.459C75.8408 105.26 75.8301 105.064 75.826 104.87C75.8196 104.677 75.8133 104.487 75.807 104.299C75.8029 104.111 75.8007 103.923 75.8007 103.735V100.083C75.8007 99.9781 75.8269 99.9048 75.8796 99.8631C75.9324 99.8214 76.0827 99.7951 76.3312 99.7847C76.5776 99.7744 76.9903 99.769 77.5692 99.769V110.428C77.5692 110.637 77.464 110.741 77.2534 110.741ZM78.5166 110.741V100.537C78.5166 100.276 78.5428 100.093 78.5955 99.9885C78.6482 99.8841 78.8008 99.8214 79.0534 99.8004C79.3061 99.7794 79.727 99.769 80.3166 99.769V110.428C80.3166 110.532 80.2904 110.605 80.2377 110.647C80.1849 110.689 80.0355 110.715 79.7892 110.726C79.5407 110.736 79.1166 110.741 78.5166 110.741ZM86.7905 110.741H85.4167L83.743 106.54C83.6483 106.29 83.5504 106.002 83.4493 105.678C83.3505 105.355 83.2567 105.015 83.1683 104.659C83.0776 104.304 82.9955 103.959 82.9219 103.625C82.8484 103.29 82.783 102.988 82.7261 102.716C82.6671 102.444 82.6219 102.227 82.5904 102.064C82.5588 101.903 82.543 101.822 82.543 101.822L81.5009 100.788L81.5798 99.769H82.9851L84.6273 103.891C84.7324 104.163 84.8379 104.468 84.9431 104.807C85.0482 105.148 85.1461 105.492 85.2367 105.841C85.3252 106.192 85.4063 106.53 85.4799 106.854C85.5535 107.178 85.6166 107.471 85.6694 107.732C85.7221 107.993 85.7641 108.199 85.7957 108.349C85.8273 108.502 85.8431 108.578 85.8431 108.578L86.9168 109.722L86.7905 110.741ZM81.264 110.741V100.083C81.264 99.8734 81.3692 99.769 81.5798 99.769L83.0325 100.083L82.764 102.732C82.7956 102.951 82.8218 103.176 82.843 103.406C82.8642 103.635 82.885 103.867 82.9062 104.101C82.9273 104.338 82.9463 104.568 82.963 104.791C82.9778 105.017 82.9905 105.239 83.0009 105.459C83.0113 105.678 83.0198 105.889 83.0262 106.092C83.0303 106.297 83.0325 106.488 83.0325 106.666V110.428C83.0325 110.532 83.0063 110.605 82.9535 110.647C82.9008 110.689 82.7536 110.715 82.5114 110.726C82.2692 110.736 81.8536 110.741 81.264 110.741ZM86.7905 110.741L85.3378 110.428L85.5746 107.418C85.5431 107.178 85.5169 106.945 85.4957 106.719C85.4745 106.496 85.4556 106.279 85.4389 106.07C85.424 105.861 85.4095 105.657 85.3946 105.459C85.3779 105.26 85.3662 105.064 85.3599 104.87C85.3558 104.677 85.3504 104.487 85.3441 104.299C85.34 104.111 85.3378 103.923 85.3378 103.735V100.083C85.3378 99.9781 85.364 99.9048 85.4167 99.8631C85.4695 99.8214 85.6198 99.7951 85.8683 99.7847C86.1147 99.7744 86.5274 99.769 87.1063 99.769V110.428C87.1063 110.637 87.0011 110.741 86.7905 110.741ZM90.8958 110.898C90.2958 110.898 89.801 110.816 89.4116 110.653C89.0222 110.493 88.7168 110.219 88.4958 109.832C88.2747 109.446 88.119 108.907 88.0284 108.218C87.94 107.528 87.8958 106.661 87.8958 105.616C87.8958 104.351 87.9747 103.324 88.1326 102.534C88.2905 101.746 88.5169 101.14 88.8116 100.716C89.1062 100.294 89.4694 100.004 89.9011 99.8474C90.3328 99.6907 90.8223 99.6123 91.3695 99.6123C91.938 99.6123 92.3665 99.7032 92.6548 99.885C92.9454 100.069 93.0906 100.281 93.0906 100.521C93.0906 100.72 93.0663 100.919 93.018 101.117C92.9716 101.315 92.9223 101.493 92.8696 101.65C92.7537 101.556 92.5907 101.48 92.3801 101.421C92.1695 101.365 91.9591 101.337 91.7485 101.337C91.3484 101.337 91.0222 101.412 90.7695 101.562C90.5169 101.715 90.3189 101.953 90.1758 102.277C90.0347 102.601 89.938 103.026 89.8853 103.553C89.8326 104.082 89.8063 104.722 89.8063 105.475C89.8063 106.269 89.8243 106.911 89.86 107.403C89.8979 107.894 89.9589 108.267 90.0432 108.522C90.1275 108.779 90.2431 108.951 90.3906 109.039C90.538 109.129 90.7168 109.174 90.9274 109.174C91.0326 109.174 91.1201 109.165 91.1895 109.149C91.2568 109.134 91.3095 109.116 91.3474 109.095C91.3831 109.074 91.4115 109.054 91.4327 109.033V105.522H90.7064V104.393C90.7064 104.184 90.8327 104.08 91.0853 104.08H93.0906L93.0748 110.412C92.9065 110.516 92.7095 110.605 92.4843 110.679C92.2569 110.752 92.0116 110.807 91.7485 110.845C91.4854 110.88 91.2012 110.898 90.8958 110.898Z" fill="#FF4057"/>
<path d="M63.2539 38.769L63.2467 35.7909C63.2184 35.3904 63.0392 35.0149 62.7452 34.7402C62.4513 34.4655 62.0645 34.3122 61.6632 34.3112C61.2619 34.3103 60.8759 34.4617 60.5832 34.735C60.2906 35.0082 60.1132 35.3829 60.0868 35.7832L60.094 38.7614C60.1223 39.1619 60.3015 39.5374 60.5955 39.8121C60.8894 40.0868 61.2762 40.2401 61.6775 40.2411C62.0789 40.242 62.4649 40.0906 62.7575 39.8173C63.0501 39.5441 63.2275 39.1694 63.2539 38.769Z" fill="#FF4057"/>
<path d="M66.7721 31.0063C66.3534 31.0063 65.9525 31.1721 65.6571 31.4674C65.3617 31.7628 65.1959 32.1637 65.196 32.5824L65.2167 41.9889C65.2024 42.2055 65.2329 42.4228 65.3061 42.6275C65.3793 42.8321 65.4937 43.0198 65.6422 43.1787C65.7908 43.3377 65.9703 43.4646 66.1695 43.5515C66.3688 43.6385 66.5837 43.6836 66.8007 43.6841C67.0177 43.6847 67.2324 43.6406 67.4312 43.5546C67.6301 43.4686 67.809 43.3426 67.9567 43.1843C68.1045 43.0261 68.218 42.839 68.2903 42.6347C68.3625 42.4303 68.3918 42.2131 68.3766 41.9966L68.3578 32.592C68.3563 32.1726 68.1886 31.7701 67.8913 31.4728C67.594 31.1755 67.1915 31.0078 66.7721 31.0063Z" fill="#FF4057"/>
<path d="M75.9057 35.7293L70.8784 35.7172C70.5699 35.7164 70.3204 35.9659 70.3212 36.2744L70.3261 38.3216C70.3269 38.6301 70.5776 38.8808 70.8861 38.8816L75.9134 38.8937C76.2219 38.8945 76.4714 38.645 76.4706 38.3365L76.4657 36.2892C76.4649 35.9807 76.2142 35.73 75.9057 35.7293Z" fill="#FF4057"/>
<path d="M86.7008 35.8514C86.6725 35.4509 86.4933 35.0754 86.1993 34.8007C85.9054 34.5261 85.5186 34.3727 85.1173 34.3718C84.716 34.3708 84.33 34.5223 84.0373 34.7955C83.7447 35.0688 83.5673 35.4434 83.5409 35.8438L83.5481 38.822C83.5764 39.2224 83.7556 39.598 84.0496 39.8727C84.3435 40.1473 84.7303 40.3006 85.1316 40.3016C85.533 40.3026 85.919 40.1511 86.2116 39.8779C86.5042 39.6046 86.6816 39.2299 86.708 38.8296L86.7008 35.8514Z" fill="#FF4057"/>
<path d="M81.5763 32.6219C81.548 32.2214 81.3688 31.8459 81.0748 31.5712C80.7809 31.2966 80.3941 31.1432 79.9928 31.1423C79.5915 31.1413 79.2054 31.2928 78.9128 31.566C78.6202 31.8393 78.4428 32.214 78.4164 32.6143L78.4352 42.0189C78.4634 42.4193 78.6427 42.7949 78.9366 43.0695C79.2306 43.3442 79.6173 43.4975 80.0187 43.4985C80.42 43.4995 80.806 43.348 81.0986 43.0748C81.3913 42.8015 81.5687 42.4268 81.595 42.0265L81.5763 32.6219Z" fill="#FF4057"/>
<path d="M11.1462 36.866L72 1.73205L132.854 36.866V107.134L72 142.268L11.1462 107.134V36.866Z" stroke="#FF4057" stroke-width="3"/>
</svg>
